<?xml version="1.0" standalone="no"?>
<!DOCTYPE svg PUBLIC "-//W3C//DTD SVG 20010904//EN"
 "http://www.w3.org/TR/2001/REC-SVG-20010904/DTD/svg10.dtd">
<svg version="1.0" xmlns="http://www.w3.org/2000/svg"
 width="3000.000000pt" height="3600.000000pt" viewBox="0 0 3000.000000 3600.000000"
 preserveAspectRatio="xMidYMid meet">

<g transform="translate(0.000000,3600.000000) scale(0.100000,-0.100000)"
fill="#000000" stroke="none">
<path d="M8833 22955 c-500 -57 -975 -213 -1389 -456 -695 -408 -1233 -1032
-1527 -1774 -347 -872 -322 -1923 65 -2768 482 -1052 1431 -1807 2548 -2026
469 -92 1011 -87 1470 15 655 146 1264 478 1730 944 151 150 277 298 264 310
-23 21 -1128 872 -1138 876 -7 3 -27 -16 -45 -41 -50 -70 -195 -219 -280 -287
-288 -233 -642 -385 -1010 -434 -136 -18 -416 -20 -546 -4 -466 56 -878 249
-1204 564 -170 165 -301 351 -417 591 -101 209 -165 433 -194 680 -15 125 -16
430 -1 550 62 499 282 953 617 1275 315 303 723 498 1162 554 158 20 426 21
579 1 495 -65 947 -306 1251 -670 42 -49 81 -89 88 -89 10 1 1093 832 1133
870 13 11 7 22 -39 76 -325 379 -656 643 -1075 859 -382 197 -714 305 -1145
371 -177 27 -707 35 -897 13z"/>
<path d="M9140 20671 l0 -309 -72 -7 c-63 -7 -129 -28 -200 -66 -10 -5 -23 -9
-30 -9 -8 0 -37 -16 -65 -35 -29 -19 -56 -35 -60 -35 -5 0 -16 -9 -26 -20 -9
-11 -20 -20 -24 -20 -5 0 -103 95 -218 210 -115 116 -213 210 -216 210 -9 0
-139 -130 -139 -139 0 -3 95 -101 210 -216 116 -115 210 -213 210 -218 0 -4
-9 -15 -20 -24 -11 -10 -20 -21 -20 -26 0 -4 -16 -31 -35 -60 -19 -28 -35 -57
-35 -65 0 -7 -4 -20 -9 -30 -38 -71 -59 -137 -66 -200 l-7 -72 -309 0 -309 0
0 -110 0 -110 309 0 309 0 7 -72 c7 -63 28 -129 66 -200 5 -10 9 -23 9 -30 0
-8 16 -37 35 -65 19 -29 35 -56 35 -60 0 -5 9 -16 20 -26 11 -9 20 -20 20 -24
0 -5 -94 -103 -210 -218 -115 -115 -210 -213 -210 -216 0 -9 130 -139 139
-139 3 0 101 95 216 210 115 116 213 210 217 210 3 0 13 -6 20 -13 23 -22 144
-97 156 -97 7 0 20 -4 30 -9 71 -38 137 -59 200 -66 l72 -7 0 -309 0 -309 110
0 110 0 0 309 0 309 72 7 c63 7 129 28 200 66 10 5 23 9 30 9 12 0 133 75 156
97 7 7 17 13 20 13 4 0 102 -94 217 -210 115 -115 213 -210 216 -210 9 0 139
130 139 139 0 3 -94 101 -210 216 -115 115 -210 213 -210 217 0 3 6 13 13 20
22 23 97 144 97 156 0 7 4 20 9 30 38 71 59 137 66 200 l7 72 309 0 309 0 0
110 0 110 -309 0 -309 0 -7 72 c-7 63 -28 129 -66 200 -5 10 -9 23 -9 30 0 12
-75 133 -97 156 -7 7 -13 17 -13 20 0 4 95 102 210 217 116 115 210 213 210
216 0 9 -130 139 -139 139 -3 0 -101 -94 -216 -210 -115 -115 -213 -210 -218
-210 -4 0 -15 9 -24 20 -10 11 -21 20 -26 20 -4 0 -31 16 -60 35 -28 19 -57
35 -65 35 -7 0 -20 4 -30 9 -71 38 -137 59 -200 66 l-72 7 0 309 0 309 -110 0
-110 0 0 -309z m306 -529 c137 -39 228 -93 329 -197 75 -78 105 -114 105 -127
0 -5 9 -22 20 -38 23 -33 35 -62 63 -155 47 -162 16 -434 -63 -545 -11 -16
-20 -33 -20 -38 0 -21 -144 -174 -200 -213 -144 -99 -252 -132 -430 -132 -218
0 -370 62 -521 212 -150 151 -212 303 -212 521 0 181 38 303 138 437 121 162
298 267 500 297 61 9 223 -3 291 -22z"/>
<path d="M12355 20409 c-326 -41 -589 -228 -720 -513 -74 -160 -107 -375 -88
-568 16 -152 44 -253 102 -373 87 -178 218 -308 396 -396 163 -80 234 -94 465
-93 169 0 205 3 275 22 152 42 298 126 397 229 50 53 128 160 128 177 0 6 -70
46 -155 89 l-156 77 -72 -73 c-112 -115 -242 -167 -417 -167 -284 0 -479 160
-536 439 -25 125 -16 327 20 437 77 239 251 359 521 358 175 0 314 -59 419
-176 l54 -61 148 82 c82 46 153 87 158 91 10 10 -34 75 -98 147 -188 209 -510
313 -841 272z"/>
<path d="M21345 20409 c-361 -46 -646 -269 -765 -597 -41 -115 -60 -232 -60
-379 0 -496 284 -858 750 -955 129 -27 384 -21 505 12 224 61 417 199 538 385
209 324 205 814 -9 1136 -197 297 -562 448 -959 398z m336 -388 c246 -77 380
-304 367 -625 -4 -100 -10 -136 -35 -206 -83 -240 -256 -360 -518 -361 -117
-1 -174 11 -271 57 -129 61 -219 175 -265 339 -30 103 -32 305 -6 405 73 279
277 428 567 415 56 -2 122 -12 161 -24z"/>
<path d="M13620 19435 l0 -945 575 0 575 0 0 185 0 185 -375 0 -375 0 0 760 0
760 -200 0 -200 0 0 -945z"/>
<path d="M15330 19444 c-201 -515 -367 -941 -368 -945 -2 -6 85 -8 203 -7
l207 3 67 185 66 185 406 3 405 2 68 -190 69 -190 204 0 c111 0 203 3 203 6 0
3 -165 428 -366 945 l-367 939 -216 0 -216 0 -365 -936z m729 141 c67 -186
121 -345 121 -352 0 -10 -56 -13 -270 -13 -148 0 -270 4 -270 9 0 8 236 669
262 735 l12 29 12 -34 c6 -19 66 -187 133 -374z"/>
<path d="M17130 19436 l0 -946 195 0 195 0 0 315 0 316 136 -3 137 -3 177
-310 177 -310 227 -3 c124 -1 226 0 226 3 0 2 -101 170 -224 372 -213 350
-223 368 -203 377 92 40 140 69 196 121 131 122 191 259 191 438 0 56 -7 131
-15 166 -45 188 -187 323 -402 383 -74 21 -102 22 -545 26 l-468 3 0 -945z
m902 551 c89 -43 121 -105 120 -228 -1 -111 -48 -195 -137 -242 -37 -20 -57
-22 -267 -25 l-228 -3 0 266 0 267 228 -4 c226 -3 227 -3 284 -31z"/>
<path d="M18734 20353 c8 -16 154 -273 325 -572 l311 -543 0 -374 0 -374 200
0 200 0 0 371 0 372 325 568 c179 313 325 571 325 574 0 3 -101 5 -224 5
l-225 0 -197 -390 c-109 -214 -200 -390 -203 -390 -3 0 -94 175 -201 388
l-195 387 -228 3 -228 2 15 -27z"/>
<path d="M22810 19435 l0 -945 185 0 185 0 0 600 c0 330 3 600 8 599 4 0 189
-269 412 -597 l405 -597 163 -3 162 -2 0 945 0 945 -190 0 -190 0 -2 -598 -3
-599 -406 596 -407 596 -161 3 -161 2 0 -945z"/>
<path d="M14950 18249 c-314 -55 -510 -293 -510 -618 1 -200 53 -337 178 -460
117 -117 236 -166 424 -177 199 -12 373 49 487 171 105 113 151 239 151 417
l0 98 -305 0 -305 0 0 -105 0 -105 170 0 c189 0 181 3 155 -69 -22 -64 -60
-105 -128 -142 -54 -29 -73 -34 -153 -37 -141 -7 -239 29 -313 114 -122 139
-129 407 -13 558 124 164 425 175 567 20 l42 -45 101 56 c119 67 118 61 13
165 -72 71 -156 118 -258 144 -79 21 -231 28 -303 15z"/>
<path d="M17725 18246 c-38 -7 -98 -25 -132 -39 -224 -91 -363 -315 -363 -582
0 -288 158 -518 414 -601 69 -23 100 -27 206 -28 204 -1 332 46 456 169 126
126 177 259 177 460 0 83 -5 140 -17 185 -56 208 -220 372 -423 424 -88 23
-233 28 -318 12z m261 -247 c56 -17 77 -31 124 -78 84 -83 104 -142 104 -296
0 -101 -3 -129 -22 -177 -30 -75 -99 -150 -170 -185 -52 -25 -67 -28 -163 -28
-101 0 -109 2 -175 35 -125 64 -184 178 -184 356 0 177 61 293 187 358 79 40
198 46 299 15z"/>
<path d="M16010 17620 l0 -610 130 0 130 0 0 205 0 206 86 -3 87 -3 116 -202
115 -203 144 0 c113 0 143 3 139 13 -2 7 -66 113 -141 235 -75 123 -136 226
-136 230 0 4 25 20 55 36 72 37 147 120 177 194 34 85 32 225 -3 302 -34 72
-76 120 -137 153 -95 51 -140 57 -464 57 l-298 0 0 -610z m587 361 c53 -25 76
-67 76 -142 0 -73 -27 -127 -79 -156 -35 -21 -53 -23 -181 -23 l-143 0 0 170
0 170 143 0 c118 0 149 -4 184 -19z"/>
<path d="M18810 17833 c0 -226 5 -426 11 -463 20 -127 98 -250 196 -307 147
-86 375 -94 539 -19 70 32 153 112 187 179 52 101 57 155 57 600 l0 407 -130
0 -129 0 -3 -422 c-3 -416 -3 -424 -25 -465 -40 -75 -112 -113 -212 -113 -69
0 -149 35 -180 78 -49 70 -51 87 -51 518 l0 404 -130 0 -130 0 0 -397z"/>
<path d="M20160 17621 l0 -611 125 0 125 0 0 204 0 203 168 6 c186 5 240 17
318 70 158 105 208 349 114 544 -36 73 -81 115 -170 157 l-65 31 -307 3 -308
3 0 -610z m560 360 c52 -28 73 -70 73 -151 0 -84 -22 -127 -78 -155 -34 -16
-61 -20 -170 -20 l-130 0 -3 173 -2 172 137 0 c116 0 144 -3 173 -19z"/>
</g>
</svg>
